<?xml version="1.0" encoding="UTF-8" standalone="no"?>
<!-- Created with Inkscape (http://www.inkscape.org/) -->
<svg id="svg249" xmlns:rdf="http://www.w3.org/1999/02/22-rdf-syntax-ns#" xmlns="http://www.w3.org/2000/svg" height="48px" width="48px" xmlns:cc="http://creativecommons.org/ns#" xmlns:xlink="http://www.w3.org/1999/xlink" xmlns:dc="http://purl.org/dc/elements/1.1/">
 <defs id="defs3">
  <radialGradient id="radialGradient6719" xlink:href="#linearGradient5060" gradientUnits="userSpaceOnUse" cy="486.65" cx="605.71" gradientTransform="matrix(-2.7744 0 0 1.9697 112.76 -872.89)" r="117.14"/>
  <linearGradient id="linearGradient5060">
   <stop id="stop5062" offset="0"/>
   <stop id="stop5064" stop-opacity="0" offset="1"/>
  </linearGradient>
  <radialGradient id="radialGradient6717" xlink:href="#linearGradient5060" gradientUnits="userSpaceOnUse" cy="486.65" cx="605.71" gradientTransform="matrix(2.7744 0 0 1.9697 -1891.6 -872.89)" r="117.14"/>
  <linearGradient id="linearGradient6715" y2="609.51" gradientUnits="userSpaceOnUse" x2="302.86" gradientTransform="matrix(2.7744 0 0 1.9697 -1892.2 -872.89)" y1="366.65" x1="302.86">
   <stop id="stop5050" stop-opacity="0" offset="0"/>
   <stop id="stop5056" offset=".5"/>
   <stop id="stop5052" stop-opacity="0" offset="1"/>
  </linearGradient>
  <radialGradient id="radialGradient15656" gradientUnits="userSpaceOnUse" cy="3.7561" cx="8.8244" gradientTransform="matrix(.96827 0 0 1.0328 3.3536 .64645)" r="37.752">
   <stop id="stop270" stop-color="#a3a3a3" offset="0"/>
   <stop id="stop271" stop-color="#4c4c4c" offset="1"/>
  </radialGradient>
  <radialGradient id="radialGradient15658" gradientUnits="userSpaceOnUse" cy="35.737" cx="33.967" gradientTransform="scale(.96049 1.0411)" r="86.708">
   <stop id="stop260" stop-color="#fafafa" offset="0"/>
   <stop id="stop261" stop-color="#bbb" offset="1"/>
  </radialGradient>
  <radialGradient id="radialGradient15668" gradientUnits="userSpaceOnUse" cy="7.2679" cx="8.1436" gradientTransform="matrix(.96827 0 0 1.0328 3.3536 .64645)" r="38.159">
   <stop id="stop15664" stop-color="#fff" offset="0"/>
   <stop id="stop15666" stop-color="#f8f8f8" offset="1"/>
  </radialGradient>
  <radialGradient id="radialGradient2283" gradientUnits="userSpaceOnUse" cx="20.892" cy="114.57" r="5.256" gradientTransform="matrix(.22970 0 0 .22970 4.6135 3.9798)">
   <stop id="stop15566" stop-color="#F0F0F0" offset="0"/>
   <stop id="stop15568" stop-color="#9a9a9a" offset="1"/>
  </radialGradient>
  <radialGradient id="radialGradient2285" gradientUnits="userSpaceOnUse" cx="20.892" cy="64.568" r="5.257" gradientTransform="matrix(.22970 0 0 .22970 4.6135 3.9798)">
   <stop id="stop15573" stop-color="#F0F0F0" offset="0"/>
   <stop id="stop15575" stop-color="#9a9a9a" offset="1"/>
  </radialGradient>
  <linearGradient id="linearGradient2119">
   <stop id="stop2121" stop-color="#d2b32a" stop-opacity=".56731" offset="0"/>
   <stop id="stop2378" stop-color="#ffeb3f" stop-opacity=".72157" offset=".11"/>
   <stop id="stop2123" stop-color="#fff493" stop-opacity=".23077" offset="1"/>
  </linearGradient>
  <linearGradient id="linearGradient7465" y2="459.01" xlink:href="#linearGradient2119" gradientUnits="userSpaceOnUse" x2="564.29" gradientTransform="matrix(.045856 .049308 -.052152 .048916 81.399 -22.432)" y1="459.01" x1="333.57"/>
  <linearGradient id="linearGradient7467" y2="504.34" xlink:href="#linearGradient2119" gradientUnits="userSpaceOnUse" x2="567" gradientTransform="matrix(.045856 .049308 -.052152 .048916 81.399 -22.432)" y1="504.34" x1="336.16"/>
 </defs>
 <metadata id="metadata4">
  <rdf:RDF>
   <cc:Work rdf:about="">
    <dc:format>image/svg+xml</dc:format>
    <dc:type rdf:resource="http://purl.org/dc/dcmitype/StillImage"/>
    <dc:title>Generic Text</dc:title>
    <dc:subject>
     <rdf:Bag>
      <rdf:li>text</rdf:li>
      <rdf:li>plaintext</rdf:li>
      <rdf:li>regular</rdf:li>
      <rdf:li>document</rdf:li>
     </rdf:Bag>
    </dc:subject>
    <cc:license rdf:resource="http://creativecommons.org/licenses/by-sa/2.0/"/>
    <dc:creator>
     <cc:Agent>
      <dc:title>Jakub Steiner</dc:title>
     </cc:Agent>
    </dc:creator>
    <dc:source>http://jimmac.musichall.cz</dc:source>
   </cc:Work>
   <cc:License rdf:about="http://creativecommons.org/licenses/by/2.0/">
    <cc:permits rdf:resource="http://web.resource.org/cc/Reproduction"/>
    <cc:permits rdf:resource="http://web.resource.org/cc/Distribution"/>
    <cc:requires rdf:resource="http://web.resource.org/cc/Notice"/>
    <cc:requires rdf:resource="http://web.resource.org/cc/Attribution"/>
    <cc:permits rdf:resource="http://web.resource.org/cc/DerivativeWorks"/>
    <cc:requires rdf:resource="http://web.resource.org/cc/ShareAlike"/>
   </cc:License>
   <cc:Work rdf:about="">
    <dc:format>image/svg+xml</dc:format>
    <dc:type rdf:resource="http://purl.org/dc/dcmitype/StillImage"/>
   </cc:Work>
  </rdf:RDF>
 </metadata>
 <g id="layer6">
  <g id="g6707" transform="matrix(.021055 0 0 .020868 42.852 41.154)">
   <rect id="rect6709" opacity=".40206" style="color:black" height="478.36" width="1339.6" y="-150.7" x="-1559.3" fill="url(#linearGradient6715)"/>
   <path id="path6711" opacity=".40206" style="color:black" d="m-219.62-150.68v478.33c142.88 0.9 345.4-107.17 345.4-239.2 0-132.02-159.44-239.13-345.4-239.13z" fill="url(#radialGradient6717)"/>
   <path id="path6713" opacity=".40206" style="color:black" d="m-1559.3-150.68v478.33c-142.8 0.9-345.4-107.17-345.4-239.2 0-132.02 159.5-239.13 345.4-239.13z" fill="url(#radialGradient6719)"/>
  </g>
 </g>
 <g id="layer1">
  <rect id="rect15391" stroke-linejoin="round" height="40.92" stroke="url(#radialGradient15656)" stroke-linecap="round" fill="url(#radialGradient15658)" style="color:#000000" ry="1.149" width="34.875" y="3.6464" x="6.6036" display="block"/>
  <rect id="rect15660" stroke-linejoin="round" height="38.946" stroke="url(#radialGradient15668)" stroke-linecap="round" fill="none" style="color:#000000" rx=".14905" ry=".14905" width="32.776" y="4.5839" x="7.6661" display="block"/>
  <g id="g2270" transform="translate(.64645 -.037989)">
   <g id="g1440" transform="matrix(.22970 0 0 .22970 4.9671 4.245)" stroke="#000" fill="#fff">
    <path id="path1448" d="m23.428 113.07c0 1.97-1.6 3.57-3.573 3.57-1.974 0-3.573-1.6-3.573-3.57s1.6-3.57 3.573-3.57 3.573 1.6 3.573 3.57z"/>
    <path id="path1456" d="m23.428 63.07c0 1.973-1.6 3.573-3.573 3.573-1.974 0-3.573-1.6-3.573-3.573 0-1.974 1.6-3.573 3.573-3.573s3.573 1.6 3.573 3.573z"/>
   </g>
   <path id="path15570" fill="url(#radialGradient2283)" d="m9.995 29.952c0 0.454-0.3675 0.821-0.8207 0.821-0.4535 0-0.8207-0.368-0.8207-0.821s0.3675-0.82 0.8207-0.82 0.8207 0.367 0.8207 0.82z"/>
   <path id="path15577" fill="url(#radialGradient2285)" d="m9.995 18.467c0 0.453-0.3675 0.821-0.8207 0.821-0.4535 0-0.8207-0.368-0.8207-0.821s0.3675-0.821 0.8207-0.821 0.8207 0.368 0.8207 0.821z"/>
  </g>
  <path id="path15672" d="m11.506 5.4943v37.907" stroke-opacity=".017544" stroke="#000" stroke-width=".98855" fill="none"/>
  <path id="path15674" d="m12.5 5.0205v38.018" stroke-opacity=".20468" stroke="#fff" fill="none"/>
 </g>
 <g id="layer5">
  <rect id="rect15686" style="color:#000000" fill-opacity=".54971" rx=".13779" ry=".065391" height="1" width="20" display="block" y="9" x="16" fill="#9b9b9b"/>
  <rect id="rect15688" style="color:#000000" fill-opacity=".54971" rx=".13779" ry=".065391" height="1" width="20" display="block" y="11" x="16" fill="#9b9b9b"/>
  <rect id="rect15690" style="color:#000000" fill-opacity=".54971" rx=".13779" ry=".065391" height="1" width="20" display="block" y="13" x="16" fill="#9b9b9b"/>
  <rect id="rect15692" style="color:#000000" fill-opacity=".54971" rx=".13779" ry=".065391" height="1" width="20" display="block" y="15" x="16" fill="#9b9b9b"/>
  <rect id="rect15694" style="color:#000000" fill-opacity=".54971" rx=".13779" ry=".065391" height="1" width="20" display="block" y="17" x="16" fill="#9b9b9b"/>
  <rect id="rect15696" style="color:#000000" fill-opacity=".54971" rx=".13779" ry=".065391" height="1" width="20" display="block" y="19" x="16" fill="#9b9b9b"/>
  <rect id="rect15698" style="color:#000000" fill-opacity=".54971" rx=".13779" ry=".065391" height="1" width="20" display="block" y="21" x="16" fill="#9b9b9b"/>
  <rect id="rect15700" style="color:#000000" fill-opacity=".54971" rx=".13779" ry=".065391" height="1" width="20" display="block" y="23" x="16" fill="#9b9b9b"/>
  <rect id="rect15732" style="color:#000000" fill-opacity=".54971" rx=".062004" ry=".065391" height="1" width="9" display="block" y="25" x="16" fill="#9b9b9b"/>
  <g id="g4849" fill="#9b9b9b" fill-opacity=".54971">
   <rect id="rect15736" style="color:#000000" rx=".13779" ry=".065391" height="1" width="20" display="block" y="29" x="16"/>
   <rect id="rect15738" style="color:#000000" rx=".13779" ry=".065391" height="1" width="20" display="block" y="31" x="16"/>
   <rect id="rect15740" style="color:#000000" rx=".13779" ry=".065391" height="1" width="20" display="block" y="33" x="16"/>
   <rect id="rect15742" style="color:#000000" rx=".13779" ry=".065391" height="1" width="20" display="block" y="35" x="16"/>
   <rect id="rect15744" style="color:#000000" rx=".096450" ry=".065391" height="1" width="14" display="block" y="37" x="16"/>
  </g>
  <g id="g7345" transform="translate(-37.391 17.064)">
   <path id="path2100" d="m72.755 7.8315c-2.64-2.8384-7.175-2.8821-10.136-0.1048s-3.227 7.3243-0.588 10.162c1.981 2.13 5.029 2.688 7.681 1.662l0.834 0.897 1.996 0.648-0.466 0.997 3.676 3.52 1.256-0.215-0.237 1.311 0.881 0.947 1.687-0.618-0.353 1.42 0.804 0.864c0.006 0.007 0.007 0.016 0.015 0.017 0.009 0 0.025 0.007 0.032 0.001l3.134 0.171s1.269-2.434 1.269-2.434l-10.306-11.548c1.143-2.566 0.775-5.5963-1.179-7.6975zm-5.242 1.0597l0.2 0.216c0.529 0.5688 0.48 1.4788-0.101 2.0238l-1.704 1.598c-0.581 0.545-1.472 0.517-2.001-0.052l-0.201-0.216c-0.529-0.569-0.496-1.463 0.085-2.008l1.704-1.5985c0.581-0.5446 1.489-0.5321 2.018 0.0367z" fill-rule="evenodd" fill="#dabf3c"/>
   <path id="path2102" d="m73.342 15.964l10.369 11.485c0.012 0.013 0.013 0.032 0.002 0.042l-0.524 0.491c-0.011 0.011-0.029 0.009-0.042-0.004l-10.369-11.485c-0.012-0.013-0.013-0.032-0.002-0.042l0.524-0.492c0.011-0.01 0.03-0.008 0.042 0.005z" fill-rule="evenodd" fill="url(#linearGradient7465)"/>
   <path id="path2104" d="m81.992 29.356l-10.592-11.339c-0.011-0.012-0.044 0.004-0.077 0.035l-1.498 1.405 0.83 0.892 1.991 0.642-0.464 1 3.664 3.52 1.278-0.215-0.256 1.313 0.878 0.945 1.695-0.606-0.36 1.411 0.814 0.875c0.006 0.007 0.014 0.011 0.022 0.011 0.009 0.001 0.018-0.002 0.025-0.009 0 0 1.125 0.066 2.05 0.12z" fill-rule="evenodd" fill="url(#linearGradient7467)"/>
   <path id="path2108" opacity=".45405" d="m73.833 14.713c-2.447-2.266-4.274-1.794-7.393-2.505l-0.554 0.52c-0.59 0.553-1.494 0.524-2.031-0.053l-0.203-0.219c-0.336-0.361-0.39-0.831-0.282-1.283-0.763-0.386-1.382-0.833-1.971-1.3084-1.318 2.5084-1.037 5.6134 0.923 7.7214 2.502 2.69 6.804 2.741 9.604 0.115 0.911-0.854 1.544-1.89 1.907-2.988z" fill-rule="evenodd" fill="#c4a00f"/>
   <path id="path2110" stroke-linejoin="round" d="m67.5 8.8919l0.204 0.2197c0.529 0.5688 0.488 1.4654-0.093 2.0094l-1.705 1.599c-0.58 0.545-1.474 0.526-2.002-0.043l-0.205-0.22c-0.529-0.569-0.487-1.465 0.093-2.01l1.705-1.5988c0.581-0.5446 1.474-0.5251 2.003 0.0437z" stroke="#ac8b0b" stroke-width=".72869" fill="none"/>
   <path id="path2112" d="m72.755 7.8315c-2.64-2.8384-7.175-2.8821-10.136-0.1048s-3.227 7.3243-0.588 10.162c1.981 2.13 5.029 2.688 7.681 1.662l0.834 0.897 2.261 0.399-0.484 1.512 3.182 2.988 2.298-0.694-0.784 2.322 0.633 0.681 1.952-0.866-0.37 1.934 0.556 0.598c0.006 0.007 0.007 0.016 0.015 0.017 0.009 0 0.025 0.007 0.032 0.001l3.134 0.171s1.269-2.434 1.269-2.434l-10.306-11.548c1.143-2.566 0.775-5.5963-1.179-7.6975zm-5.242 1.0597l0.2 0.216c0.529 0.5688 0.48 1.4788-0.101 2.0238l-1.704 1.598c-0.581 0.545-1.472 0.517-2.001-0.052l-0.201-0.216c-0.529-0.569-0.496-1.463 0.085-2.008l1.704-1.5985c0.581-0.5446 1.489-0.5321 2.018 0.0367z" stroke="#ac8b0b" fill="none"/>
  </g>
 </g>
</svg>
