<?xml version="1.0" encoding="UTF-8" standalone="no"?>
<!-- Created with Inkscape (http://www.inkscape.org/) -->
<svg
   xmlns:dc="http://purl.org/dc/elements/1.1/"
   xmlns:cc="http://creativecommons.org/ns#"
   xmlns:rdf="http://www.w3.org/1999/02/22-rdf-syntax-ns#"
   xmlns:svg="http://www.w3.org/2000/svg"
   xmlns="http://www.w3.org/2000/svg"
   xmlns:sodipodi="http://sodipodi.sourceforge.net/DTD/sodipodi-0.dtd"
   xmlns:inkscape="http://www.inkscape.org/namespaces/inkscape"
   version="1.0"
   width="361.81308"
   height="464.97198"
   id="svg2"
   sodipodi:version="0.32"
   inkscape:version="0.46"
   sodipodi:docname="micro SIM 2 - Corrected - comparison.svg"
   inkscape:output_extension="org.inkscape.output.svg.inkscape">
  <metadata
     id="metadata71">
    <rdf:RDF>
      <cc:Work
         rdf:about="">
        <dc:format>image/svg+xml</dc:format>
        <dc:type
           rdf:resource="http://purl.org/dc/dcmitype/StillImage" />
      </cc:Work>
    </rdf:RDF>
  </metadata>
  <sodipodi:namedview
     inkscape:window-height="794"
     inkscape:window-width="1362"
     inkscape:pageshadow="2"
     inkscape:pageopacity="0.0"
     guidetolerance="10.0"
     gridtolerance="10.0"
     objecttolerance="10.0"
     borderopacity="1.0"
     bordercolor="#666666"
     pagecolor="#ffffff"
     id="base"
     showgrid="false"
     inkscape:zoom="2.5067977"
     inkscape:cx="180.90654"
     inkscape:cy="285.65955"
     inkscape:window-x="20"
     inkscape:window-y="20"
     inkscape:current-layer="g2492" />
  <defs
     id="defs4" />
  <g
     id="g2492"
     transform="translate(-1.3577483,0.2691137)">
    <g
       id="g3399">
      <rect
         style="opacity:1;fill:#30a1c2;fill-opacity:1;stroke:#000000;stroke-width:2;stroke-linejoin:round;stroke-miterlimit:4;stroke-dasharray:none;stroke-opacity:1"
         id="rect2453"
         y="0.73088634"
         x="2.3577483"
         rx="12.3"
         height="228.97197"
         width="359.81308"
         ry="12.3" />
      <g
         style="opacity:0.88721804"
         id="g3402"
         transform="translate(-191.46865,-543.20693)">
        <rect
           style="fill:#a2813b;fill-opacity:1;stroke:#000000;stroke-width:1.75199997;stroke-linejoin:round;stroke-miterlimit:4;stroke-dasharray:none;stroke-opacity:0.98518521"
           id="rect3401"
           y="649.37665"
           x="461.6051"
           rx="18.650105"
           height="47.966698"
           width="58.314877"
           ry="18.650105" />
        <g
           id="g3403">
          <g
             id="g3405"
             transform="translate(0.1582313,0)">
            <path
               style="fill:none;fill-rule:evenodd;stroke:#000000;stroke-width:0.96435052px;stroke-linecap:butt;stroke-linejoin:miter;stroke-opacity:1"
               id="path3407"
               d="M 465.76424,656.75161 C 472.0963,656.62566 481.65024,656.19298 484.75878,656.4964 C 489.67689,656.97644 488.29533,664.69906 482.83328,664.20148 L 482.98793,682.7596 C 489.8422,682.42133 488.41691,690.16873 482.81546,690.1758 L 465.39602,690.1758" />
            <path
               style="fill:none;fill-rule:evenodd;stroke:#000000;stroke-width:1px;stroke-linecap:butt;stroke-linejoin:miter;stroke-opacity:1"
               id="path3409"
               d="M 482.4472,677.82872 L 465.51646,677.82872" />
            <path
               style="fill:none;fill-rule:evenodd;stroke:#000000;stroke-width:1.00878596px;stroke-linecap:butt;stroke-linejoin:miter;stroke-opacity:1"
               id="path3411"
               d="M 482.35926,668.01838 L 465.1297,668.01838" />
            <path
               style="fill:none;fill-rule:evenodd;stroke:#000000;stroke-width:1px;stroke-linecap:butt;stroke-linejoin:miter;stroke-opacity:1"
               id="path3413"
               d="M 479.75727,689.8543 L 479.75727,697.29117" />
            <path
               style="fill:none;fill-rule:evenodd;stroke:#000000;stroke-width:1px;stroke-linecap:butt;stroke-linejoin:miter;stroke-opacity:1"
               id="path3415"
               d="M 479.59904,690.17076 L 490.67523,690.17076" />
            <path
               sodipodi:nodetypes="cscc"
               style="fill:none;fill-rule:evenodd;stroke:#000000;stroke-width:0.98661214px;stroke-linecap:butt;stroke-linejoin:miter;stroke-opacity:1"
               id="path3417"
               d="M 484.67354,690.25657 C 468.1417,690.25657 465.05099,681.75549 465.05099,673.17647 C 465.05099,664.26915 467.23631,656.53992 483.40769,656.53992 C 490.32378,656.38169 488.93469,651.38365 488.93469,649.86342" />
          </g>
          <g
             id="g3419"
             transform="matrix(-1,0,0,1,981.39915,5.7543229e-2)">
            <path
               style="fill:none;fill-rule:evenodd;stroke:#000000;stroke-width:0.96435052px;stroke-linecap:butt;stroke-linejoin:miter;stroke-opacity:1"
               id="path3421"
               d="M 465.76424,656.75161 C 472.0963,656.62566 481.65024,656.19298 484.75878,656.4964 C 489.67689,656.97644 488.29533,664.69906 482.83328,664.20148 L 482.98793,682.7596 C 489.8422,682.42133 488.41691,690.16873 482.81546,690.1758 L 465.39602,690.1758" />
            <path
               style="fill:none;fill-rule:evenodd;stroke:#000000;stroke-width:1px;stroke-linecap:butt;stroke-linejoin:miter;stroke-opacity:1"
               id="path3423"
               d="M 482.4472,677.82872 L 465.51646,677.82872" />
            <path
               style="fill:none;fill-rule:evenodd;stroke:#000000;stroke-width:1.00878596px;stroke-linecap:butt;stroke-linejoin:miter;stroke-opacity:1"
               id="path3425"
               d="M 482.35926,668.01838 L 465.1297,668.01838" />
            <path
               style="fill:none;fill-rule:evenodd;stroke:#000000;stroke-width:1px;stroke-linecap:butt;stroke-linejoin:miter;stroke-opacity:1"
               id="path3427"
               d="M 479.75727,689.8543 L 479.75727,697.29117" />
            <path
               style="fill:none;fill-rule:evenodd;stroke:#000000;stroke-width:1px;stroke-linecap:butt;stroke-linejoin:miter;stroke-opacity:1"
               id="path3429"
               d="M 479.59904,690.17076 L 490.67523,690.17076" />
            <path
               sodipodi:nodetypes="cscc"
               style="fill:none;fill-rule:evenodd;stroke:#000000;stroke-width:0.98661214px;stroke-linecap:butt;stroke-linejoin:miter;stroke-opacity:1"
               id="path3431"
               d="M 484.67354,690.25657 C 468.1417,690.25657 465.05099,681.75549 465.05099,673.17647 C 465.05099,664.26915 467.23631,656.53992 483.40769,656.53992 C 490.32378,656.38169 489.17953,651.62849 489.17953,650.10826" />
          </g>
        </g>
      </g>
      <g
         style="opacity:0.88721804"
         transform="matrix(0,-1,1,0,-187.02851,575.04031)"
         id="g3476" />
      <text
         style="font-size:40px;font-style:normal;font-weight:normal;line-height:125%;opacity:0.88721804;fill:#000000;fill-opacity:1;stroke:none;stroke-width:1px;stroke-linecap:butt;stroke-linejoin:miter;stroke-opacity:1;font-family:Bitstream Vera Sans"
         xml:space="preserve"
         id="text3524"
         y="58.318031"
         x="41.931583"
         sodipodi:linespacing="125%"><tspan
           style="font-size:30;font-style:normal;font-variant:normal;font-weight:normal;font-stretch:normal;text-align:start;line-height:125%;writing-mode:lr-tb;text-anchor:start;font-family:Arial;-inkscape-font-specification:Arial"
           id="tspan3526"
           y="58.318031"
           x="41.931583">Micro SIM</tspan></text>
      <path
         style="opacity:0;fill:#30a1c2;fill-opacity:1;stroke:#ffffff;stroke-width:5;stroke-linejoin:bevel;stroke-miterlimit:4;stroke-dasharray:none;stroke-opacity:1"
         id="path3528"
         d="M 215.72041,69.55598 C 219.19606,69.566667 222.42905,70.869512 225.61811,72.111805 C 230.25347,74.099024 234.64833,76.600095 238.89654,79.306932 C 240.86781,80.488908 242.30609,82.107128 243.50042,84.032585 C 244.40152,85.422798 244.97194,86.996935 245.80331,88.417278 C 246.51895,89.474261 247.33662,90.400364 247.87011,91.571828 C 248.28312,92.997367 248.4777,94.461074 248.88991,95.889374 C 249.50491,97.28819 249.70554,98.81622 250.18213,100.25403 C 250.71655,101.56601 251.34519,102.83539 251.94926,104.11684 C 252.33734,104.97415 252.75065,105.81633 253.09935,106.69078 L 245.76668,110.77167 C 245.44908,109.90632 245.04687,109.08388 244.67409,108.24164 C 244.04466,106.93918 243.40506,105.63814 242.85482,104.30097 C 242.33693,102.86129 242.23821,101.28771 241.56074,99.88974 C 241.15121,98.500666 240.87966,97.105588 240.55343,95.699818 C 240.04307,94.55949 239.16218,93.681857 238.56272,92.590268 C 237.77251,91.158116 237.18725,89.611778 236.32809,88.208885 C 235.20009,86.433532 233.93375,84.819131 232.18383,83.599082 C 228.17587,80.723982 223.93388,78.148357 219.31781,76.363686 C 215.90808,75.225891 212.46007,74.129394 208.81673,74.571798 L 215.72041,69.55598 z" />
      <path
         style="opacity:0;fill:#000000;fill-opacity:1;stroke:#ffffff;stroke-width:5;stroke-linejoin:bevel;stroke-miterlimit:4;stroke-dasharray:none;stroke-opacity:1"
         id="path3530"
         d="M 213.4178,66.102059 C 215.77017,66.31838 218.09548,66.797982 220.41325,67.250406 C 224.28094,68.007345 228.15442,68.727549 231.9858,69.656274 C 233.35472,70.156716 234.86139,70.436628 236.14321,71.164434 C 236.63484,71.443576 236.92559,71.769632 237.32501,72.154153 C 238.73513,73.872102 239.52505,75.9907 240.43872,77.99267 C 241.71175,80.855913 242.66588,83.861048 243.32103,86.923377 C 243.69751,88.900773 243.85942,90.913538 244.44069,92.846245 C 245.17978,94.712549 246.18359,96.450739 247.16496,98.195385 C 248.60287,100.6663 249.99478,103.1623 251.37944,105.66315 C 252.22118,107.07701 252.75181,108.63909 253.43256,110.12649 C 253.64339,110.62311 253.8932,111.10119 254.12516,111.58802 L 246.786,115.74597 C 246.55179,115.24793 246.28267,114.7662 246.0964,114.24703 C 245.48908,112.74268 245.01933,111.17836 244.27682,109.72781 C 242.99887,107.18281 241.664,104.66778 240.10011,102.28289 C 239.01329,100.52307 237.89062,98.77824 237.1579,96.83136 C 236.55282,94.851846 236.38005,92.804943 236.14891,90.755247 C 235.60435,87.726283 234.75505,84.750077 233.40958,81.9719 C 232.49549,80.077933 231.5678,78.167781 230.1933,76.555761 C 228.83962,75.323549 227.05854,74.818363 225.36148,74.220031 C 221.59913,73.20376 217.78177,72.423966 213.93685,71.790759 C 211.48358,71.430657 209.00197,71.016137 206.51412,71.117876 L 213.4178,66.102059 z" />
      <path
         style="opacity:0.44360902;fill:none;fill-rule:evenodd;stroke:#000000;stroke-width:2;stroke-linecap:butt;stroke-linejoin:miter;marker-end:none;stroke-miterlimit:4;stroke-dasharray:none;stroke-opacity:1"
         id="path3540"
         d="M 176.37869,59.79576 L 254.48289,95.8014"
         sodipodi:nodetypes="cc" />
      <rect
         style="opacity:0.4078341;fill:#000000;fill-opacity:0;stroke:#000000;stroke-width:1.99999988;stroke-linejoin:miter;stroke-miterlimit:4;stroke-dasharray:7.9999999, 1.99999997;stroke-dashoffset:0;stroke-opacity:1"
         id="rect6973"
         y="95.569542"
         x="249.85461"
         rx="8.0952635"
         height="69.959663"
         width="90.928169"
         ry="10.238556" />
      <g
         id="g3586"
         transform="matrix(0.5973766,0,0,0.7147441,126.31257,35.767251)"
         style="opacity:1">
        <path
           style="fill:none;fill-rule:evenodd;stroke:#ffffff;stroke-width:3.82596159;stroke-linecap:butt;stroke-linejoin:miter;stroke-miterlimit:4;stroke-dasharray:none;stroke-opacity:1"
           d="M 342.29904,103.12041 L 342.29904,98.706238 C 342.29904,95.844117 341.02398,94.978677 336.37475,94.978677 L 285.19025,94.978677"
           id="path3588"
           sodipodi:nodetypes="cccc" />
        <path
           sodipodi:nodetypes="ccc"
           id="path3590"
           d="M 342.32493,160.48153 C 342.32493,168.12567 342.13386,169.16509 337.6406,169.16509 L 285.22275,169.16509"
           style="fill:none;fill-rule:evenodd;stroke:#ffffff;stroke-width:3.82596183;stroke-linecap:butt;stroke-linejoin:miter;stroke-miterlimit:4;stroke-dasharray:none;stroke-opacity:1" />
        <path
           sodipodi:nodetypes="ccccccc"
           id="path3592"
           d="M 267.23463,94.940374 C 264.64372,94.940374 249.65913,94.940384 248.22159,94.940384 L 231.27475,109.82398 L 231.28915,160.89616 C 231.28915,166.84876 234.05581,169.20136 236.77514,169.17011 L 263.7146,169.17011 L 267.82828,169.17011"
           style="fill:none;fill-rule:evenodd;stroke:#ffffff;stroke-width:3.82596183;stroke-linecap:butt;stroke-linejoin:miter;stroke-miterlimit:4;stroke-dasharray:none;stroke-opacity:1" />
      </g>
      <path
         style="fill:none;fill-rule:evenodd;stroke:#ffffff;stroke-width:0.5;stroke-linecap:butt;stroke-linejoin:miter;stroke-miterlimit:4;stroke-dasharray:none;stroke-opacity:1"
         d="M 329.80545,109.03247 L 329.80545,151.60004"
         id="path3600"
         sodipodi:nodetypes="cc" />
      <path
         style="fill:none;fill-rule:evenodd;stroke:#ffffff;stroke-width:0.5;stroke-linecap:butt;stroke-linejoin:miter;stroke-miterlimit:4;stroke-dasharray:none;stroke-opacity:1"
         d="M 285.88088,155.68626 L 296.87973,155.68626"
         id="path3604"
         sodipodi:nodetypes="cc" />
      <text
         sodipodi:linespacing="125%"
         x="75.513123"
         y="86.946625"
         id="text3559"
         xml:space="preserve"
         style="font-size:40px;font-style:normal;font-weight:normal;line-height:125%;opacity:0.88721804;fill:#000000;fill-opacity:1;stroke:none;stroke-width:1px;stroke-linecap:butt;stroke-linejoin:miter;stroke-opacity:1;font-family:Bitstream Vera Sans"><tspan
           x="75.513123"
           y="86.946625"
           id="tspan3561"
           style="font-size:30px;font-style:normal;font-variant:normal;font-weight:normal;font-stretch:normal;text-align:start;line-height:125%;writing-mode:lr-tb;text-anchor:start;font-family:Arial;-inkscape-font-specification:Arial">(3FF)</tspan></text>
    </g>
    <g
       id="g3445"
       transform="translate(0,234)">
      <rect
         ry="12.3"
         width="359.81308"
         height="228.97197"
         rx="12.3"
         x="2.3577483"
         y="0.73088634"
         id="rect3447"
         style="opacity:1;fill:#30a1c2;fill-opacity:1;stroke:#000000;stroke-width:2;stroke-linejoin:round;stroke-miterlimit:4;stroke-dasharray:none;stroke-opacity:1" />
      <g
         transform="translate(-191.46865,-543.20693)"
         id="g3449"
         style="opacity:0.88721804">
        <rect
           ry="18.650105"
           width="58.314877"
           height="47.966698"
           rx="18.650105"
           x="461.6051"
           y="649.37665"
           id="rect3451"
           style="fill:#a2813b;fill-opacity:1;stroke:#000000;stroke-width:1.75199997;stroke-linejoin:round;stroke-miterlimit:4;stroke-dasharray:none;stroke-opacity:0.98518521" />
        <g
           id="g3453">
          <g
             transform="translate(0.1582313,0)"
             id="g3455">
            <path
               d="M 465.76424,656.75161 C 472.0963,656.62566 481.65024,656.19298 484.75878,656.4964 C 489.67689,656.97644 488.29533,664.69906 482.83328,664.20148 L 482.98793,682.7596 C 489.8422,682.42133 488.41691,690.16873 482.81546,690.1758 L 465.39602,690.1758"
               id="path3457"
               style="fill:none;fill-rule:evenodd;stroke:#000000;stroke-width:0.96435052px;stroke-linecap:butt;stroke-linejoin:miter;stroke-opacity:1" />
            <path
               d="M 482.4472,677.82872 L 465.51646,677.82872"
               id="path3459"
               style="fill:none;fill-rule:evenodd;stroke:#000000;stroke-width:1px;stroke-linecap:butt;stroke-linejoin:miter;stroke-opacity:1" />
            <path
               d="M 482.35926,668.01838 L 465.1297,668.01838"
               id="path3461"
               style="fill:none;fill-rule:evenodd;stroke:#000000;stroke-width:1.00878596px;stroke-linecap:butt;stroke-linejoin:miter;stroke-opacity:1" />
            <path
               d="M 479.75727,689.8543 L 479.75727,697.29117"
               id="path3463"
               style="fill:none;fill-rule:evenodd;stroke:#000000;stroke-width:1px;stroke-linecap:butt;stroke-linejoin:miter;stroke-opacity:1" />
            <path
               d="M 479.59904,690.17076 L 490.67523,690.17076"
               id="path3465"
               style="fill:none;fill-rule:evenodd;stroke:#000000;stroke-width:1px;stroke-linecap:butt;stroke-linejoin:miter;stroke-opacity:1" />
            <path
               d="M 484.67354,690.25657 C 468.1417,690.25657 465.05099,681.75549 465.05099,673.17647 C 465.05099,664.26915 467.23631,656.53992 483.40769,656.53992 C 490.32378,656.38169 488.93469,651.38365 488.93469,649.86342"
               id="path3467"
               style="fill:none;fill-rule:evenodd;stroke:#000000;stroke-width:0.98661214px;stroke-linecap:butt;stroke-linejoin:miter;stroke-opacity:1"
               sodipodi:nodetypes="cscc" />
          </g>
          <g
             transform="matrix(-1,0,0,1,981.39915,5.7543229e-2)"
             id="g3469">
            <path
               d="M 465.76424,656.75161 C 472.0963,656.62566 481.65024,656.19298 484.75878,656.4964 C 489.67689,656.97644 488.29533,664.69906 482.83328,664.20148 L 482.98793,682.7596 C 489.8422,682.42133 488.41691,690.16873 482.81546,690.1758 L 465.39602,690.1758"
               id="path3471"
               style="fill:none;fill-rule:evenodd;stroke:#000000;stroke-width:0.96435052px;stroke-linecap:butt;stroke-linejoin:miter;stroke-opacity:1" />
            <path
               d="M 482.4472,677.82872 L 465.51646,677.82872"
               id="path3473"
               style="fill:none;fill-rule:evenodd;stroke:#000000;stroke-width:1px;stroke-linecap:butt;stroke-linejoin:miter;stroke-opacity:1" />
            <path
               d="M 482.35926,668.01838 L 465.1297,668.01838"
               id="path3475"
               style="fill:none;fill-rule:evenodd;stroke:#000000;stroke-width:1.00878596px;stroke-linecap:butt;stroke-linejoin:miter;stroke-opacity:1" />
            <path
               d="M 479.75727,689.8543 L 479.75727,697.29117"
               id="path3477"
               style="fill:none;fill-rule:evenodd;stroke:#000000;stroke-width:1px;stroke-linecap:butt;stroke-linejoin:miter;stroke-opacity:1" />
            <path
               d="M 479.59904,690.17076 L 490.67523,690.17076"
               id="path3479"
               style="fill:none;fill-rule:evenodd;stroke:#000000;stroke-width:1px;stroke-linecap:butt;stroke-linejoin:miter;stroke-opacity:1" />
            <path
               d="M 484.67354,690.25657 C 468.1417,690.25657 465.05099,681.75549 465.05099,673.17647 C 465.05099,664.26915 467.23631,656.53992 483.40769,656.53992 C 490.32378,656.38169 489.17953,651.62849 489.17953,650.10826"
               id="path3481"
               style="fill:none;fill-rule:evenodd;stroke:#000000;stroke-width:0.98661214px;stroke-linecap:butt;stroke-linejoin:miter;stroke-opacity:1"
               sodipodi:nodetypes="cscc" />
          </g>
        </g>
      </g>
      <g
         id="g3483"
         transform="matrix(0,-1,1,0,-187.02851,575.04031)"
         style="opacity:0.88721804">
        <text
           sodipodi:linespacing="125%"
           x="426.78784"
           y="432.46826"
           id="text3485"
           xml:space="preserve"
           style="font-size:40px;font-style:normal;font-weight:normal;line-height:125%;fill:#000000;fill-opacity:1;stroke:none;stroke-width:1px;stroke-linecap:butt;stroke-linejoin:miter;stroke-opacity:1;font-family:Bitstream Vera Sans"><tspan
             x="426.78784"
             y="432.46826"
             id="tspan3487"
             style="font-size:8px;font-style:normal;font-variant:normal;font-weight:normal;font-stretch:normal;text-align:start;line-height:125%;writing-mode:lr-tb;text-anchor:start;font-family:Sans;-inkscape-font-specification:Sans">12345A</tspan></text>
        <text
           sodipodi:linespacing="125%"
           x="433.46057"
           y="442.81567"
           id="text3489"
           xml:space="preserve"
           style="font-size:40px;font-style:normal;font-weight:normal;line-height:125%;fill:#000000;fill-opacity:1;stroke:none;stroke-width:1px;stroke-linecap:butt;stroke-linejoin:miter;stroke-opacity:1;font-family:Bitstream Vera Sans"><tspan
             x="433.46057"
             y="442.81567"
             id="tspan3491"
             style="font-size:8px;font-style:normal;font-variant:normal;font-weight:normal;font-stretch:normal;text-align:start;line-height:125%;writing-mode:lr-tb;text-anchor:start;font-family:Sans;-inkscape-font-specification:Sans">6789</tspan></text>
      </g>
      <text
         sodipodi:linespacing="100%"
         x="63.47451"
         y="59.975178"
         id="text3493"
         xml:space="preserve"
         style="font-size:40px;font-style:normal;font-weight:normal;line-height:125%;opacity:0.88721804;fill:#000000;fill-opacity:1;stroke:none;stroke-width:1px;stroke-linecap:butt;stroke-linejoin:miter;stroke-opacity:1;font-family:Bitstream Vera Sans"><tspan
           sodipodi:role="line"
           id="tspan2455"
           style="font-size:30;-inkscape-font-specification:Arial;font-family:Arial;font-weight:normal;font-style:normal;font-stretch:normal;font-variant:normal">Mini SIM</tspan></text>
      <path
         d="M 215.72041,69.55598 C 219.19606,69.566667 222.42905,70.869512 225.61811,72.111805 C 230.25347,74.099024 234.64833,76.600095 238.89654,79.306932 C 240.86781,80.488908 242.30609,82.107128 243.50042,84.032585 C 244.40152,85.422798 244.97194,86.996935 245.80331,88.417278 C 246.51895,89.474261 247.33662,90.400364 247.87011,91.571828 C 248.28312,92.997367 248.4777,94.461074 248.88991,95.889374 C 249.50491,97.28819 249.70554,98.81622 250.18213,100.25403 C 250.71655,101.56601 251.34519,102.83539 251.94926,104.11684 C 252.33734,104.97415 252.75065,105.81633 253.09935,106.69078 L 245.76668,110.77167 C 245.44908,109.90632 245.04687,109.08388 244.67409,108.24164 C 244.04466,106.93918 243.40506,105.63814 242.85482,104.30097 C 242.33693,102.86129 242.23821,101.28771 241.56074,99.88974 C 241.15121,98.500666 240.87966,97.105588 240.55343,95.699818 C 240.04307,94.55949 239.16218,93.681857 238.56272,92.590268 C 237.77251,91.158116 237.18725,89.611778 236.32809,88.208885 C 235.20009,86.433532 233.93375,84.819131 232.18383,83.599082 C 228.17587,80.723982 223.93388,78.148357 219.31781,76.363686 C 215.90808,75.225891 212.46007,74.129394 208.81673,74.571798 L 215.72041,69.55598 z"
         id="path3497"
         style="opacity:0;fill:#30a1c2;fill-opacity:1;stroke:#ffffff;stroke-width:5;stroke-linejoin:bevel;stroke-miterlimit:4;stroke-dasharray:none;stroke-opacity:1" />
      <path
         d="M 213.4178,66.102059 C 215.77017,66.31838 218.09548,66.797982 220.41325,67.250406 C 224.28094,68.007345 228.15442,68.727549 231.9858,69.656274 C 233.35472,70.156716 234.86139,70.436628 236.14321,71.164434 C 236.63484,71.443576 236.92559,71.769632 237.32501,72.154153 C 238.73513,73.872102 239.52505,75.9907 240.43872,77.99267 C 241.71175,80.855913 242.66588,83.861048 243.32103,86.923377 C 243.69751,88.900773 243.85942,90.913538 244.44069,92.846245 C 245.17978,94.712549 246.18359,96.450739 247.16496,98.195385 C 248.60287,100.6663 249.99478,103.1623 251.37944,105.66315 C 252.22118,107.07701 252.75181,108.63909 253.43256,110.12649 C 253.64339,110.62311 253.8932,111.10119 254.12516,111.58802 L 246.786,115.74597 C 246.55179,115.24793 246.28267,114.7662 246.0964,114.24703 C 245.48908,112.74268 245.01933,111.17836 244.27682,109.72781 C 242.99887,107.18281 241.664,104.66778 240.10011,102.28289 C 239.01329,100.52307 237.89062,98.77824 237.1579,96.83136 C 236.55282,94.851846 236.38005,92.804943 236.14891,90.755247 C 235.60435,87.726283 234.75505,84.750077 233.40958,81.9719 C 232.49549,80.077933 231.5678,78.167781 230.1933,76.555761 C 228.83962,75.323549 227.05854,74.818363 225.36148,74.220031 C 221.59913,73.20376 217.78177,72.423966 213.93685,71.790759 C 211.48358,71.430657 209.00197,71.016137 206.51412,71.117876 L 213.4178,66.102059 z"
         id="path3499"
         style="opacity:0;fill:#000000;fill-opacity:1;stroke:#ffffff;stroke-width:5;stroke-linejoin:bevel;stroke-miterlimit:4;stroke-dasharray:none;stroke-opacity:1" />
      <path
         d="M 179.70473,60.860411 L 217.74968,89.90915"
         id="path3501"
         style="opacity:0.44360902;fill:none;fill-rule:evenodd;stroke:#000000;stroke-width:2;stroke-linecap:butt;stroke-linejoin:miter;marker-end:none;stroke-miterlimit:4;stroke-dasharray:none;stroke-opacity:1"
         sodipodi:nodetypes="cc" />
      <rect
         ry="13.148829"
         width="138.15689"
         height="89.845451"
         rx="12.3"
         x="212.56877"
         y="86.455223"
         id="rect3503"
         style="opacity:0.4078341;fill:#000000;fill-opacity:0;stroke:#000000;stroke-width:1.99999988;stroke-linejoin:miter;stroke-miterlimit:4;stroke-dasharray:7.99999992, 1.99999998;stroke-dashoffset:0;stroke-opacity:1" />
      <g
         id="g3505">
        <path
           style="fill:none;fill-rule:evenodd;stroke:#ffffff;stroke-width:7;stroke-linecap:butt;stroke-linejoin:miter;stroke-miterlimit:4;stroke-dasharray:none;stroke-opacity:1"
           d="M 340.54596,108.31668 C 340.54596,92.006135 342.09998,96.048558 277.93627,96.048558"
           id="path3507"
           sodipodi:nodetypes="cc" />
        <path
           sodipodi:nodetypes="ccc"
           id="path3509"
           d="M 340.54596,152.29173 C 340.54596,160.19468 340.08243,164.55985 334.40187,164.55985 L 277.59433,164.55985"
           style="fill:none;fill-rule:evenodd;stroke:#ffffff;stroke-width:7;stroke-linecap:butt;stroke-linejoin:miter;stroke-miterlimit:4;stroke-dasharray:none;stroke-opacity:1" />
        <path
           sodipodi:nodetypes="cccccc"
           id="path3511"
           d="M 268.54928,96.048558 C 265.22129,96.048558 246.65422,96.048566 242.74393,96.048566 L 228.86381,110.00883 L 228.44077,156.9661 C 228.44077,162.56572 231.20836,164.5734 233.92676,164.5734 L 267.66842,164.5734"
           style="fill:none;fill-rule:evenodd;stroke:#ffffff;stroke-width:7;stroke-linecap:butt;stroke-linejoin:miter;stroke-miterlimit:4;stroke-dasharray:none;stroke-opacity:1" />
        <path
           id="path3513"
           d="M 264.25469,99.012717 L 281.98247,99.012717"
           style="fill:none;fill-rule:evenodd;stroke:#ffffff;stroke-width:1px;stroke-linecap:butt;stroke-linejoin:miter;stroke-opacity:1" />
        <path
           id="path3515"
           d="M 262.19072,161.60095 L 279.9185,161.60095"
           style="fill:none;fill-rule:evenodd;stroke:#ffffff;stroke-width:1px;stroke-linecap:butt;stroke-linejoin:miter;stroke-opacity:1" />
      </g>
      <path
         sodipodi:nodetypes="cc"
         id="path3527"
         d="M 337.57909,107.34388 L 337.57909,154.02937"
         style="fill:none;fill-rule:evenodd;stroke:#ffffff;stroke-width:1px;stroke-linecap:butt;stroke-linejoin:miter;stroke-opacity:1" />
    </g>
  </g>
</svg>
