<?xml version="1.0" encoding="UTF-8" standalone="no"?>
<!-- Created with Inkscape (http://www.inkscape.org/) -->

<svg
   xmlns:dc="http://purl.org/dc/elements/1.1/"
   xmlns:cc="http://creativecommons.org/ns#"
   xmlns:rdf="http://www.w3.org/1999/02/22-rdf-syntax-ns#"
   xmlns:svg="http://www.w3.org/2000/svg"
   xmlns="http://www.w3.org/2000/svg"
   xmlns:xlink="http://www.w3.org/1999/xlink"
   xmlns:sodipodi="http://sodipodi.sourceforge.net/DTD/sodipodi-0.dtd"
   xmlns:inkscape="http://www.inkscape.org/namespaces/inkscape"
   version="1.0"
   width="50"
   height="50"
   id="svg886"
   xml:space="preserve"
   inkscape:version="0.48.3.1 r9886"
   sodipodi:docname="signature.svg"
   inkscape:export-filename="signature.png"
   inkscape:export-xdpi="115.2"
   inkscape:export-ydpi="115.2"><metadata
   id="metadata61"><rdf:RDF><cc:Work
       rdf:about=""><dc:format>image/svg+xml</dc:format><dc:type
         rdf:resource="http://purl.org/dc/dcmitype/StillImage" /><dc:title></dc:title></cc:Work></rdf:RDF></metadata><sodipodi:namedview
   pagecolor="#ffffff"
   bordercolor="#666666"
   borderopacity="1"
   objecttolerance="10"
   gridtolerance="10"
   guidetolerance="10"
   inkscape:pageopacity="0"
   inkscape:pageshadow="2"
   inkscape:window-width="1280"
   inkscape:window-height="975"
   id="namedview59"
   showgrid="false"
   inkscape:zoom="1"
   inkscape:cx="17.815765"
   inkscape:cy="25.474509"
   inkscape:window-x="0"
   inkscape:window-y="0"
   inkscape:window-maximized="1"
   inkscape:current-layer="svg886" />
  <defs
   id="defs3033"><radialGradient
     cx="141.87952"
     cy="185.83133"
     r="85.333336"
     fx="120.53843"
     fy="164.9516"
     id="XMLID_1_"
     gradientUnits="userSpaceOnUse"
     gradientTransform="matrix(1, 0, 0, 0.472892, 0, 97.9533)">
      <stop
   style="stop-color:#000000;stop-opacity:0.60000002"
   offset="0"
   id="stop7366" />
      <stop
   style="stop-color:#000000;stop-opacity:0"
   offset="1"
   id="stop7368" />
    </radialGradient><linearGradient
     id="XMLID_6_">
      <stop
   style="stop-color:#993300;stop-opacity:1"
   offset="0"
   id="stop1049" />
      <stop
   style="stop-color:#ffb800;stop-opacity:1"
   offset="0.29260001"
   id="stop1050" />
      <stop
   style="stop-color:#ffffe1;stop-opacity:1"
   offset="0.59570003"
   id="stop1051" />
      <stop
   style="stop-color:#fffede;stop-opacity:1"
   offset="0.65829998"
   id="stop1052" />
      <stop
   style="stop-color:#fffbd3;stop-opacity:1"
   offset="0.71319997"
   id="stop1053" />
      <stop
   style="stop-color:#ffeda7;stop-opacity:1"
   offset="0.8154"
   id="stop1055" />
      <stop
   style="stop-color:#ffb800;stop-opacity:1"
   offset="1"
   id="stop1059" />
    </linearGradient><linearGradient
     x1="-91.683601"
     y1="434.98929"
     x2="-56.329899"
     y2="461.6709"
     id="linearGradient7407"
     xlink:href="#XMLID_6_"
     gradientUnits="userSpaceOnUse"
     gradientTransform="matrix(1,0,0,-1,224.5,605.008)" /><linearGradient
     x1="-136.2925"
     y1="484.05569"
     x2="-80.944"
     y2="523.92743"
     id="linearGradient7424"
     xlink:href="#XMLID_6_"
     gradientUnits="userSpaceOnUse"
     gradientTransform="matrix(0.234375,0,0,-0.234375,54.1172,139.799)" /><linearGradient
     id="XMLID_7_">
      <stop
   style="stop-color:#8e5100;stop-opacity:1"
   offset="0"
   id="stop1084" />
      <stop
   style="stop-color:#844b00;stop-opacity:1"
   offset="0.45809999"
   id="stop1086" />
      <stop
   style="stop-color:#623800;stop-opacity:1"
   offset="0.7033"
   id="stop1088" />
      <stop
   style="stop-color:#000000;stop-opacity:1"
   offset="1"
   id="stop1092" />
    </linearGradient><linearGradient
     x1="-126.0474"
     y1="508.89651"
     x2="-18.569901"
     y2="400.35501"
     id="linearGradient7409"
     xlink:href="#XMLID_7_"
     gradientUnits="userSpaceOnUse"
     gradientTransform="matrix(1,0,0,-1,224.5,605.008)" /><linearGradient
     x1="-130.35789"
     y1="489.53421"
     x2="-113.2841"
     y2="502.26721"
     id="linearGradient7415"
     xlink:href="#XMLID_7_"
     gradientUnits="userSpaceOnUse"
     gradientTransform="matrix(0.234375,0,0,-0.234375,54.1172,139.799)" /><linearGradient
     x1="-130.66161"
     y1="499.69919"
     x2="-81.556602"
     y2="499.69919"
     id="linearGradient7418"
     xlink:href="#XMLID_7_"
     gradientUnits="userSpaceOnUse"
     gradientTransform="matrix(0.234375,0,0,-0.234375,54.1172,139.799)" /><linearGradient
     x1="-91.999496"
     y1="464.8652"
     x2="-55.947899"
     y2="397.09921"
     id="XMLID_8_"
     gradientUnits="userSpaceOnUse"
     gradientTransform="matrix(1,0,0,-1,224.5,605.008)">
      <stop
   style="stop-color:#ffffff;stop-opacity:1"
   offset="0.0266"
   id="stop1113" />
      <stop
   style="stop-color:#ffb800;stop-opacity:1"
   offset="1"
   id="stop1114" />
    </linearGradient><radialGradient
     cx="-69.899399"
     cy="453.43161"
     r="10.7729"
     fx="-69.899399"
     fy="453.43161"
     id="XMLID_9_"
     gradientUnits="userSpaceOnUse"
     gradientTransform="matrix(1,0,0,-1,224.5,605.008)">
      <stop
   style="stop-color:#000000;stop-opacity:1"
   offset="0.46810001"
   id="stop1120" />
      <stop
   style="stop-color:#8e5100;stop-opacity:1"
   offset="1"
   id="stop1121" />
    </radialGradient><linearGradient
     x1="-113.1323"
     y1="480.20209"
     x2="-88.417603"
     y2="498.85461"
     id="XMLID_10_"
     gradientUnits="userSpaceOnUse"
     gradientTransform="matrix(1,0,0,-1,224.5,605.008)">
      <stop
   style="stop-color:#ffae00;stop-opacity:1"
   offset="0"
   id="stop1127" />
      <stop
   style="stop-color:#4c1c00;stop-opacity:1"
   offset="1"
   id="stop1128" />
    </linearGradient><linearGradient
     id="XMLID_12_">
      <stop
   style="stop-color:#ffffff;stop-opacity:1"
   offset="0"
   id="stop1141" />
      <stop
   style="stop-color:#000000;stop-opacity:1"
   offset="1"
   id="stop1142" />
    </linearGradient><linearGradient
     x1="-111.1909"
     y1="536.75488"
     x2="-95.818001"
     y2="546.16217"
     id="linearGradient7427"
     xlink:href="#XMLID_12_"
     gradientUnits="userSpaceOnUse"
     gradientTransform="matrix(0.234375,0,0,-0.234375,54.1172,139.799)" /><linearGradient
     x1="-152.30811"
     y1="514.76947"
     x2="-134.5591"
     y2="527.88843"
     id="linearGradient7430"
     xlink:href="#XMLID_12_"
     gradientUnits="userSpaceOnUse"
     gradientTransform="matrix(0.234375,0,0,-0.234375,54.1172,139.799)" /><linearGradient
     x1="-131.38721"
     y1="487.2764"
     x2="-138.1969"
     y2="481.66299"
     id="XMLID_82_"
     gradientUnits="userSpaceOnUse"
     gradientTransform="matrix(0.234375,0,0,-0.234375,54.1172,139.799)">
    <stop
   style="stop-color:#ffffe1;stop-opacity:1"
   offset="0"
   id="stop3026" />
    <stop
   style="stop-color:#ffb800;stop-opacity:1"
   offset="1"
   id="stop3027" />
    </linearGradient><linearGradient
     inkscape:collect="always"
     xlink:href="#XMLID_1_"
     id="linearGradient3641"
     x1="288.11716"
     y1="149.79819"
     x2="64.166534"
     y2="178.24785"
     gradientUnits="userSpaceOnUse" /><linearGradient
     inkscape:collect="always"
     xlink:href="#XMLID_1_"
     id="linearGradient3683"
     gradientUnits="userSpaceOnUse"
     x1="223.38373"
     y1="191.3811"
     x2="160.0386"
     y2="175.7059" /><filter
     inkscape:collect="always"
     id="filter3701"
     x="-0.12439672"
     width="1.2487934"
     y="-0.16232535"
     height="1.3246507"><feGaussianBlur
       inkscape:collect="always"
       stdDeviation="8.6281305"
       id="feGaussianBlur3703" /></filter></defs>
  <path
   d="m 221.88625,186.90177 c -7.51181,16.71853 -58.34368,35.31672 -76.81077,36.17279 -22.4612,1.04122 -47.744079,-1.23235 -63.541401,-8.70417 -15.797323,-7.47182 -24.992087,-17.9733 -24.987898,-28.53906 -0.0042,-10.56576 9.190575,-21.06724 24.987898,-28.53906 15.797322,-7.47182 38.002551,-11.8219 60.345441,-11.8219 22.34288,0 45.61343,1.79081 61.41075,9.26263 15.79733,7.47182 22.59723,23.26345 18.59598,32.16877 z"
   transform="matrix(-0.15941983,0.07545226,0,0.13287143,47.283294,-3.1695199)"
   style="fill:url(#linearGradient3641);fill-opacity:1;filter:url(#filter3701)"
   id="ground_shadow"
   sodipodi:nodetypes="cssssszs"
   inkscape:connector-curvature="0" />
  <path
   d="M 40.842153,8.0789949 29.99156,20.219813 c -1.130388,1.449697 -2.215933,2.940599 -3.278444,4.441763 -0.164187,0.246356 -0.208604,0.418158 -0.253815,0.634537 -0.05759,0.275068 -0.12199,0.610104 -0.444176,1.078714 -0.589173,0.857096 -1.463886,0.744362 -1.903619,0.465328 l -0.02115,-0.02115 c -0.01745,-0.01285 -0.556753,-0.381467 -1.311376,-0.930655 -0.649767,1.023667 -3.115104,4.985983 -4.378309,8.164383 -0.482408,1.213554 -1.766289,1.617695 -3.003479,2.009362 -1.856402,0.521167 -3.470995,1.583576 -4.970543,2.770821 l -0.4653273,0.401873 -1.121017,-1.121016 0.3172688,-0.465334 c 0.7690608,-1.113612 0.9007255,-2.481194 1.0152595,-3.807225 0.11152,-1.290328 0.220078,-2.50774 0.909504,-3.447647 l 0,-0.02115 0.02115,-0.02116 c 1.497667,-1.743072 5.926791,-6.671679 7.001064,-7.868258 -0.283163,-0.201624 -0.512971,-0.356715 -0.613387,-0.423025 -0.179098,-0.118176 -0.719142,-0.466702 -0.719142,-1.142168 0,-0.296327 0.119028,-0.613278 0.338419,-0.951806 0.235096,-0.363111 0.63623,-0.51117 0.99411,-0.655689 0.15927,-0.06424 0.416959,-0.18142 0.465326,-0.253815 l 3.193841,-4.695577 3.511108,-6.2819221 15.567327,0 z"
   style="opacity:0.2;stroke:none"
   id="shadow2"
   inkscape:connector-curvature="0" />
  <path
   d="M 41.370934,8.0789949 30.520341,20.219813 c -1.130312,1.449778 -2.21598,2.940545 -3.278444,4.441763 -0.164027,0.246356 -0.208604,0.418158 -0.253815,0.634537 -0.05758,0.275068 -0.122148,0.610104 -0.444176,1.078714 -0.589486,0.857096 -1.464044,0.744362 -1.903619,0.465328 l -0.02115,-0.02115 c -0.01745,-0.01285 -0.556754,-0.381467 -1.311378,-0.930655 -0.649768,1.023667 -3.115262,4.985983 -4.378309,8.164383 -0.770977,1.554092 -2.582856,1.65195 -4.08219,2.178579 -1.1712,0.500489 -2.245683,1.217202 -3.891832,2.601604 L 10.490099,39.234787 9.3690823,38.113771 9.686351,37.648437 c 0.769377,-1.113612 0.901361,-2.481194 1.01526,-3.807225 0.111837,-1.290328 0.219763,-2.50774 0.909505,-3.447647 l 0,-0.02115 0.02115,-0.02116 c 1.497665,-1.743072 5.926791,-6.671679 7.001063,-7.868258 -0.283478,-0.201624 -0.512971,-0.356715 -0.613385,-0.423025 -0.179098,-0.118176 -0.719144,-0.466702 -0.719144,-1.142168 -1e-6,-0.296327 0.119029,-0.613278 0.338422,-0.951806 0.235096,-0.363111 0.636545,-0.51117 0.994107,-0.655689 0.159904,-0.06424 0.416454,-0.181535 0.465329,-0.253815 l 3.193838,-4.695577 3.511114,-6.2819221 15.567322,0 z"
   style="opacity:0.2;stroke:none"
   id="shadow1"
   inkscape:connector-curvature="0" />
  <g
   transform="matrix(-0.15863438,0,0,0.15863438,40.905606,6.7253119)"
   id="quill">
    <path
   d="m 110.06257,116.18457 c 3.292,4.969 23.21028,37.15086 29.06528,53.37886 3.025,9.248 14.80215,9.43472 24.34315,13.51172 8.275,3.537 14.47885,7.60157 24.86185,16.33557 l 4.10787,-3.40401 c -10.287,-14.898 -4.85986,-35.72486 -12.66286,-46.36686 -10.818,-12.593 -45.03343,-50.703423 -45.03343,-50.703423 l -24.68186,17.248143 z"
   style="fill:url(#linearGradient7407);stroke:none"
   id="quill_background"
   inkscape:connector-curvature="0" />
    <path
   d="m 149.018,172.785 c -8.967,-9.173 -4.227,-18.789 -29.882,-62.84 l -7.907,5.772 c 0,0 18.63085,30.29929 28.07485,54.06429 2.889,7.267 18.32552,11.04678 23.72215,12.18071 -3.78,-2.983 -8.29,-3.323 -14.008,-9.177 z"
   style="fill:url(#XMLID_8_);stroke:none"
   id="quill_highlight"
   inkscape:connector-curvature="0" />
    <path
   d="m 111.17448,115.79978 5.842,9.303 c 2.59,-9.272 25.79252,-7.09608 24.13252,-17.41608 l -7.572,-8.420001 c 0,0 -0.0555,0.217082 -22.40252,16.533081 z"
   style="opacity:0.75;fill:url(#XMLID_10_);stroke:none"
   id="quill_shadow"
   inkscape:connector-curvature="0" />
    <path
   d="m 194.541,193.818 c -4.848,-7.02 -5.594,-15.662 -6.316,-24.02 -0.703,-8.134 -1.367,-15.818 -5.715,-21.743 l -0.096,-0.134 -0.107,-0.123 C 171.58,135.314 137.088,96.944 136.741,96.556 l -2.566,-2.86 -3.111,2.271 -25.6,18.692 2.199,3.378 c 0.194,0.297 19.444,29.994 28.622,53.081 3.039,7.65 11.107,10.201 18.906,12.669 0,0 5.383,1.78 5.467,1.809 0.127,0.051 1.148,0.461 1.148,0.461 7.383,3.156 14.342,6.48 24.721,15.209 l 2.984,2.515 7.047,-7.043 -2.017,-2.92 z m -31.072,-11.676 c -9.543,-4.078 -20.383,-4.498 -23.41,-13.747 -5.854,-16.229 -25.539,-47.708 -28.83,-52.677 C 133.576,99.4 133.576,99.4 133.576,99.4 c 0,0 34.684,38.578 45.502,51.172 7.801,10.641 1.672,30.766 11.959,45.666 -0.115,0.117 -0.219,0.218 -0.307,0.308 -1.809,-2.73 -8.152,-12.101 -30.154,-44.007 l -1.813,1.215 30.004,43.846 c -10.113,-8.43 -17.154,-11.978 -25.298,-15.458 z"
   style="fill:url(#linearGradient7409);stroke:none"
   id="quill_line"
   inkscape:connector-curvature="0" />
    <path
   d="m 163.383,151.003 c 1.494,2.242 1.004,5.193 -1.094,6.593 -2.1,1.4 -5.014,0.718 -6.508,-1.522 -1.496,-2.24 -1.002,-5.193 1.094,-6.593 2.1,-1.399 5.014,-0.716 6.508,1.522 z"
   style="fill:url(#XMLID_9_);stroke:none"
   id="quill_hole"
   inkscape:connector-curvature="0" />
  </g>
  <g
   id="shaft"
   transform="matrix(-0.67684002,0,0,0.67684002,41.920866,8.0789987)">
    <path
   d="m 21.850782,23.799295 c 0.678281,1.01766 0.271406,1.42453 1.017188,2.50945 0.74625,1.08563 1.695937,0.47485 1.695937,0.47485 l 9.767344,-7.05422 c 0.717848,-0.51845 0.96,-1.03969 0.353438,-1.97625 -0.412032,-0.6368 -1.757009,-0.72172 -2.176641,-1.34274 L 28.008737,9.7517747 22.531251,-5.6243471e-6 l -21.031251,0 L 17.170548,17.422885 l 4.680234,6.37641 z"
   style="fill:url(#linearGradient7430);stroke:none"
   id="shaft_background"
   inkscape:connector-curvature="0" />
    <path
   d="M 32.230079,16.924845 27.50461,9.9784347 21.488128,-5.6243471e-6 l -2.119792,0 L 26.223746,11.007205 l 4.687578,6.89424 1.318755,-0.9766 z"
   style="fill:url(#linearGradient7427);stroke:none"
   id="shaft_highlight"
   inkscape:connector-curvature="0" />
    <path
   d="m 24.036561,23.234465 1.311614,2.55438 9.690277,-7.33046 c 0.203915,-0.71434 -0.726085,-1.29573 -1.811953,-1.59171 l -9.189938,6.36779 z"
   style="fill:url(#linearGradient7424);stroke:none"
   id="fitting_background"
   inkscape:connector-curvature="0" />
    <path
   d="m 24.403442,23.255615 -2.177622,1.54044 c 0.04343,0.56528 0.593905,1.79223 1.255324,2.1223 l 1.973154,-1.43976 c -1.023985,-0.90235 -1.013825,-1.55595 -1.050856,-2.22298 z"
   style="fill:url(#XMLID_82_);stroke:none"
   id="fitting_highlight"
   inkscape:connector-curvature="0" />
    <path
   d="m 35.00821,18.448925 -11.518889,8.41282 0.642349,0.28762 11.113196,-8.03453 -0.236656,-0.66591 z"
   style="fill:url(#linearGradient7418);stroke:none"
   id="fitting_line2"
   inkscape:connector-curvature="0" />
    <path
   d="m 33.246646,16.923405 -0.558129,-0.31216 -10.588594,7.63055 0.08689,0.64359 11.059828,-7.96198 z"
   style="fill:url(#linearGradient7415);stroke:none"
   id="fitting_line1"
   inkscape:connector-curvature="0" />
    <path
   d="m 21.531563,25.165465 c 0.08484,0.40617 0.190313,0.91266 0.666094,1.60477 0.870938,1.26632 2.152969,1.11304 2.802656,0.70078 3.25452,-2.36156 6.49302,-4.74574 9.780001,-7.06219 0.264609,-0.17461 1.068984,-0.70617 1.068984,-1.70414 0,-0.43781 -0.157031,-0.89344 -0.481172,-1.39359 -0.347344,-0.53649 -0.946641,-0.77813 -1.474922,-0.99141 -0.235781,-0.09469 -0.63461,-0.25082 -0.706406,-0.35766 L 28.689341,9.2693947 23.500002,-5.6243471e-6 l -1.000001,0 L 28.011406,9.7525747 32.508048,16.411095 c 0.419608,0.62134 1.764609,0.7057 2.176641,1.3425 0.606562,0.93703 0.385546,1.48851 -0.353438,1.97648 -1.052812,0.69492 -9.766641,7.05422 -9.766641,7.05422 0,0 -0.949922,0.61055 -1.695703,-0.47484 -0.74625,-1.08516 -0.294018,-1.5237 -1.017656,-2.50946 L 17.170548,17.423825 1.5,-5.6243471e-6 l -1,0 L 16.538673,17.937575 l 4.635234,6.31313 c 0.172797,0.22546 0.242498,0.62022 0.357656,0.91476 z"
   style="fill:#000000;stroke:none"
   id="shaft_line"
   inkscape:connector-curvature="0" />
  </g>
</svg>